<svg width="93" height="12" viewBox="0 0 93 12" fill="none" xmlns="http://www.w3.org/2000/svg">
<path d="M8.20048 11L8.82448 4.994H8.79848L6.12048 11H4.39148L2.96148 4.916H2.93548L2.29848 11H0.543477L1.49248 1.9H3.91048L5.49648 8.595H5.52248L8.49948 1.9H10.9045L9.95548 11H8.20048ZM16.1767 9.544L16.5537 5.956H14.3307L13.9537 9.544H16.1767ZM18.5037 4.435L17.8017 11.065H16.9437L16.0727 10.532L15.0977 11.065H13.5247L12.1077 10.194L12.6277 5.306L14.2267 4.435H15.7997L16.6577 4.968L17.6457 4.435H18.5037ZM21.5421 11H19.7611L20.7491 1.51H22.5301L22.1661 4.968L23.1541 4.435H24.8571L26.2741 5.306L25.6761 11H23.8951L24.4151 5.956H22.0621L21.5421 11ZM33.1832 9.479L33.0272 11H29.1402L27.7232 10.129L28.2302 5.306L29.8292 4.435H32.2082L33.6252 5.306L33.2872 8.413H29.6732L29.5692 9.479H33.1832ZM29.9332 5.956L29.8162 7.074H31.6492L31.7662 5.956H29.9332ZM40.4558 7.802L40.2218 10.129L38.6228 11H34.9828L35.1388 9.479H38.5058L38.6098 8.478H36.7508L35.3338 7.607L35.5678 5.371L37.1668 4.5H40.6768L40.5208 6.021H37.2838L37.1798 6.931H39.0388L40.4558 7.802ZM43.8605 11H42.0795L43.0675 1.51H44.8485L44.4845 4.968L45.4725 4.435H47.1755L48.5925 5.306L47.9945 11H46.2135L46.7335 5.956H44.3805L43.8605 11Z" fill="#FFF9F9"/>
<path d="M55.3203 0.78L54.6203 7.486H54.6483L57.8963 4H59.5203L56.4823 7.164L59.2123 11H57.5463L55.5723 8.13L54.4243 9.334L54.2563 11H52.8983L53.9623 0.78H55.3203ZM60.4198 10.132L61.0638 4H62.4218L61.8058 9.852H65.0398L65.6558 4H67.0138L66.2718 11.07H65.2498L64.9698 10.496L63.9198 11.07H61.9458L60.4198 10.132ZM78.5913 4.868L77.9473 11H76.5893L77.1913 5.148H74.5173L73.9153 11H72.5573L73.1593 5.148H70.4853L69.8833 11H68.5253L69.2673 3.93H70.2893L70.5553 4.504L71.6193 3.93H73.0333L74.2513 4.686L75.6513 3.93H77.0653L78.5913 4.868ZM82.1474 5.148L81.6574 9.852H84.7514L85.2414 5.148H82.1474ZM86.7394 3.93L85.9834 11.07H85.6194L84.6814 10.496L83.6314 11.07H81.7974L80.2714 10.132L80.8314 4.868L82.5534 3.93H84.3874L85.3114 4.504L86.3754 3.93H86.7394ZM92.7481 5.218H90.2001L89.5981 11H88.2401L88.9681 4H89.9901L90.2701 4.574L91.3201 4H92.8741L92.7481 5.218Z" fill="#FFFBFB"/>
</svg>
